<?xml version="1.0" encoding="UTF-8"?>
<svg id="Calque_2" data-name="Calque 2" xmlns="http://www.w3.org/2000/svg" viewBox="0 0 337.95 70.52">
  <defs>
    <style>
      .cls-1 {
        fill: #e5d529;
      }

      .cls-2 {
        fill: #4e83ab;
      }
    </style>
  </defs>
  <g id="Calque_1-2" data-name="Calque 1">
    <g>
      <rect class="cls-1" width="337.95" height="70.52"/>
      <g>
        <path class="cls-2" d="M18.24,48.94l4.63-29.1h7.99c2.21,0,3.88,.09,4.99,.27,1.11,.18,2.08,.48,2.9,.9,1.48,.76,2.59,1.79,3.33,3.1,.74,1.31,1.1,2.88,1.1,4.71s-.39,3.5-1.18,5.05-1.86,2.74-3.21,3.58c-.8,.49-1.74,.84-2.82,1.04-1.09,.21-2.79,.31-5.11,.31h-3.26l-1.63,10.14h-7.73Zm10.34-16.32h.74c2.52,0,4.22-.27,5.11-.8,.89-.53,1.33-1.43,1.33-2.7,0-1.07-.38-1.86-1.14-2.36s-1.96-.75-3.59-.75h-1.39l-1.05,6.6Z"/>
        <path class="cls-2" d="M43.47,48.94l3.16-20.08h7.14l-3.18,20.08h-7.12Zm3.7-26.06c0-1.03,.37-1.92,1.1-2.66s1.63-1.11,2.67-1.11c1.1,0,2.01,.36,2.74,1.07,.73,.72,1.09,1.62,1.09,2.7s-.37,1.98-1.11,2.72c-.74,.74-1.65,1.11-2.72,1.11s-1.94-.37-2.67-1.12c-.74-.75-1.1-1.65-1.1-2.71Z"/>
        <path class="cls-2" d="M55.84,48.94l3.18-20.08h6.22l-.44,3.34c.97-1.37,1.99-2.37,3.06-3.01,1.07-.64,2.25-.96,3.54-.96,1.48,0,2.7,.3,3.65,.91,.95,.61,1.74,1.6,2.38,2.98,1.02-1.36,2.06-2.36,3.11-2.97s2.21-.92,3.47-.92c2.03,0,3.57,.56,4.64,1.68,1.07,1.12,1.6,2.75,1.6,4.9,0,.56-.03,1.14-.08,1.74-.05,.6-.14,1.22-.26,1.86l-1.67,10.54h-6.62l1.67-10.64c.03-.16,.05-.32,.06-.5,.01-.17,.02-.42,.02-.76,0-1.02-.22-1.79-.66-2.3s-1.09-.77-1.95-.77c-1.15,0-2.04,.43-2.67,1.29-.63,.86-1.1,2.31-1.4,4.33l-1.39,9.32h-6.64l1.67-10.64c.01-.05,.03-.13,.04-.24,.09-.64,.14-1.08,.14-1.33,0-.89-.22-1.57-.67-2.04-.44-.47-1.08-.71-1.92-.71-1.14,0-2.01,.41-2.62,1.23-.61,.82-1.07,2.29-1.39,4.39l-1.47,9.32h-6.6Z"/>
        <path class="cls-2" d="M91.96,57.81l4.59-28.95h6.68l-.44,2.78c.99-1.14,2.08-1.99,3.26-2.56s2.44-.85,3.78-.85c2.32,0,4.21,.86,5.69,2.59s2.21,3.97,2.21,6.73c0,3.47-1,6.36-2.99,8.65-2,2.29-4.5,3.44-7.5,3.44-1.35,0-2.57-.29-3.67-.86-1.09-.58-2.12-1.47-3.09-2.67,0,.64-.02,1.22-.05,1.76-.03,.54-.08,1-.15,1.4l-1.31,8.55h-7Zm18.49-19.36c0-1.29-.39-2.32-1.18-3.1-.79-.78-1.82-1.17-3.09-1.17-1.42,0-2.59,.54-3.53,1.63-.93,1.09-1.4,2.45-1.4,4.1,0,1.25,.39,2.25,1.17,3.01,.78,.76,1.8,1.14,3.06,1.14,1.44,0,2.63-.53,3.57-1.58s1.4-2.4,1.4-4.03Z"/>
        <path class="cls-2" d="M131.54,48.94l8.91-29.1h8.65l1.95,11.27c.12,.69,.23,1.42,.33,2.18,.1,.76,.2,1.55,.29,2.38,.15-.58,.34-1.21,.59-1.88s.59-1.51,1.04-2.52l5.21-11.43h8.59l.7,29.1h-7.18l-.08-13.88c0-.78,.01-1.55,.04-2.32,.03-.76,.07-1.53,.12-2.3-.29,.98-.79,2.21-1.49,3.68-.13,.29-.23,.51-.3,.66l-6.64,14.15h-4.71l-2.72-14.14c-.15-.72-.28-1.43-.39-2.16-.11-.72-.22-1.45-.31-2.18-.15,.86-.3,1.68-.47,2.45-.17,.77-.33,1.48-.51,2.15l-4.04,13.88h-7.57Z"/>
        <path class="cls-2" d="M175.56,47.93l-5.71-19.07h7.34l1.75,8.67c.03,.12,.07,.29,.12,.52,.25,1.17,.39,2.16,.42,2.98,.15-.52,.33-1.07,.57-1.66,.23-.59,.51-1.23,.85-1.92l4.15-8.59h7.61l-15.59,28.95h-7.42l5.91-9.88Z"/>
        <path class="cls-2" d="M207.6,38.92c1.22,1.31,2.38,2.27,3.49,2.86,1.11,.6,2.25,.89,3.43,.89,.98,0,1.76-.24,2.35-.72s.88-1.11,.88-1.89c0-1.06-1.18-2.21-3.54-3.44-.23-.12-.4-.21-.54-.28-2.29-1.19-3.86-2.34-4.71-3.44-.85-1.1-1.27-2.44-1.27-4.02,0-2.88,.97-5.23,2.91-7.06s4.44-2.74,7.5-2.74c1.62,0,3.17,.29,4.66,.85,1.49,.57,2.9,1.41,4.22,2.52l-3.34,5.75c-1.05-.9-2-1.57-2.86-2.01-.86-.44-1.66-.66-2.39-.66-.8,0-1.46,.23-1.99,.69-.53,.46-.79,1.02-.79,1.68,0,.82,.99,1.74,2.98,2.76,.7,.36,1.25,.65,1.63,.88,2.04,1.13,3.46,2.28,4.25,3.45s1.19,2.64,1.19,4.4c0,3.11-1.08,5.6-3.24,7.47-2.16,1.86-5.1,2.79-8.81,2.79-1.95,0-3.77-.41-5.47-1.24-1.7-.83-3.23-2.06-4.59-3.69l4.04-5.82Z"/>
        <path class="cls-2" d="M228.1,39.86c0-3.41,1.11-6.2,3.34-8.39,2.23-2.19,5.08-3.28,8.55-3.28,3.21,0,5.77,.91,7.69,2.72,1.92,1.82,2.88,4.24,2.88,7.28,0,3.37-1.13,6.14-3.38,8.31-2.25,2.17-5.16,3.26-8.71,3.26-3.14,0-5.66-.9-7.54-2.7-1.89-1.8-2.83-4.2-2.83-7.2Zm11.75-5.9c-1.38,0-2.55,.58-3.51,1.74-.96,1.16-1.44,2.57-1.44,4.24,0,1.23,.35,2.21,1.05,2.94,.7,.73,1.64,1.09,2.8,1.09,1.47,0,2.68-.56,3.63-1.68,.95-1.12,1.42-2.55,1.42-4.3,0-1.25-.35-2.23-1.06-2.95s-1.67-1.08-2.89-1.08Z"/>
        <path class="cls-2" d="M270.19,36.2c-.73-.78-1.47-1.37-2.22-1.75s-1.53-.58-2.36-.58c-1.39,0-2.56,.54-3.5,1.62-.94,1.08-1.41,2.42-1.41,4.01,0,1.33,.36,2.38,1.09,3.15,.73,.78,1.72,1.16,2.96,1.16,.8,0,1.56-.14,2.3-.42,.74-.28,1.47-.7,2.2-1.25l-1.07,6.6c-.94,.33-1.85,.58-2.73,.74-.88,.16-1.75,.24-2.59,.24-2.84,0-5.13-.92-6.89-2.75-1.76-1.84-2.63-4.23-2.63-7.19,0-3.46,1.09-6.27,3.26-8.42,2.17-2.15,5.02-3.23,8.55-3.23,1.13,0,2.2,.16,3.22,.49s1.96,.81,2.8,1.44l-.97,6.14Z"/>
        <path class="cls-2" d="M282.23,37.37l7.61-8.51h8.93l-9.82,9.78,6.56,10.3h-8.47l-5.09-9.48-1.51,9.48h-7.04l4.83-30.81h7.1l-3.1,19.24Z"/>
        <path class="cls-2" d="M314.4,30.33l-2.07,4.51c-.92-.65-1.76-1.12-2.53-1.42s-1.53-.45-2.29-.45c-.64,0-1.16,.15-1.58,.44-.42,.29-.63,.65-.63,1.07,0,.61,.69,1.18,2.07,1.71,.61,.23,1.09,.42,1.43,.58,1.92,.83,3.27,1.7,4.04,2.59,.77,.89,1.15,2.01,1.15,3.35,0,2.11-.82,3.8-2.45,5.08s-3.8,1.92-6.52,1.92c-1.54,0-3.01-.2-4.4-.61s-2.75-1.02-4.07-1.84l2.37-4.81c1.35,.83,2.49,1.42,3.4,1.77,.91,.35,1.78,.52,2.58,.52,.7,0,1.26-.16,1.69-.47,.42-.31,.64-.71,.64-1.2,0-.76-.97-1.53-2.92-2.33-.58-.24-1.03-.42-1.35-.56-1.55-.69-2.65-1.44-3.3-2.25-.65-.81-.97-1.82-.97-3.02,0-1.92,.8-3.52,2.41-4.79,1.6-1.27,3.66-1.91,6.18-1.91,1.27,0,2.51,.18,3.72,.54s2.34,.88,3.4,1.57Z"/>
      </g>
    </g>
  </g>
</svg>